<svg width="22" height="22" viewBox="0 0 22 22" fill="none" xmlns="http://www.w3.org/2000/svg">
<path d="M13.0535 9.68004C12.7693 10.8167 11.0002 10.2392 10.4502 10.0834L10.9543 8.08504C11.5227 8.25004 13.3468 8.48837 13.0535 9.68004ZM10.2027 11.11L9.65266 13.3192C10.331 13.4934 12.4302 14.1625 12.7418 12.9159C13.0718 11.6142 10.881 11.275 10.2027 11.11ZM19.8918 13.2184C18.6635 18.1317 13.6952 21.12 8.78183 19.8917C3.8685 18.6634 0.882914 13.695 2.1085 8.7817C2.39967 7.61395 2.91803 6.515 3.63399 5.54761C4.34994 4.58022 5.24945 3.76335 6.28115 3.14365C7.31284 2.52395 8.45651 2.11357 9.64684 1.93593C10.8372 1.75829 12.0508 1.81689 13.2185 2.10837C18.1227 3.3367 21.111 8.30504 19.8918 13.2184ZM13.026 7.3792L13.4385 5.7292L12.4302 5.50004L12.0268 7.08587C11.761 7.0217 11.4952 6.95754 11.2202 6.90254L11.6235 5.28004L10.6243 5.0417L10.2118 6.68254C9.99183 6.62754 9.77183 6.5817 9.57016 6.5267L8.186 6.17837L7.911 7.25087C7.911 7.25087 8.66266 7.42504 8.64433 7.4342C9.05683 7.53504 9.13016 7.7917 9.11183 8.02087L7.98433 12.54C7.9385 12.6684 7.79183 12.8334 7.526 12.7875C7.53516 12.7967 6.79266 12.6042 6.79266 12.6042L6.29766 13.75L7.59933 14.08C7.84683 14.1442 8.08516 14.2084 8.3235 14.2634L7.90183 15.9317L8.91016 16.1884L9.32266 14.5292C9.59766 14.6025 9.8635 14.6667 10.1202 14.74L9.70766 16.3809L10.716 16.6375L11.1377 14.9692C12.8335 15.29 14.1352 15.1617 14.6668 13.6125C15.1252 12.375 14.6668 11.6417 13.7502 11.1742C14.4102 11 14.9052 10.5875 15.0427 9.6892C15.226 8.47004 14.291 7.8192 13.026 7.3792Z" fill="#3F404A"/>
</svg>
