<svg width="17" height="17" viewBox="0 0 17 17"  xmlns="http://www.w3.org/2000/svg">
<path d="M9.375 5V1.5C9.375 1.25208 9.459 1.04412 9.627 0.876125C9.79442 0.708708 10.0021 0.625 10.25 0.625H15.5C15.7479 0.625 15.9556 0.708708 16.123 0.876125C16.291 1.04412 16.375 1.25208 16.375 1.5V5C16.375 5.24792 16.291 5.45558 16.123 5.623C15.9556 5.791 15.7479 5.875 15.5 5.875H10.25C10.0021 5.875 9.79442 5.791 9.627 5.623C9.459 5.45558 9.375 5.24792 9.375 5ZM0.625 8.5V1.5C0.625 1.25208 0.709 1.04412 0.877 0.876125C1.04442 0.708708 1.25208 0.625 1.5 0.625H6.75C6.99792 0.625 7.20588 0.708708 7.37388 0.876125C7.54129 1.04412 7.625 1.25208 7.625 1.5V8.5C7.625 8.74792 7.54129 8.95558 7.37388 9.123C7.20588 9.291 6.99792 9.375 6.75 9.375H1.5C1.25208 9.375 1.04442 9.291 0.877 9.123C0.709 8.95558 0.625 8.74792 0.625 8.5ZM9.375 15.5V8.5C9.375 8.25208 9.459 8.04412 9.627 7.87612C9.79442 7.70871 10.0021 7.625 10.25 7.625H15.5C15.7479 7.625 15.9556 7.70871 16.123 7.87612C16.291 8.04412 16.375 8.25208 16.375 8.5V15.5C16.375 15.7479 16.291 15.9556 16.123 16.123C15.9556 16.291 15.7479 16.375 15.5 16.375H10.25C10.0021 16.375 9.79442 16.291 9.627 16.123C9.459 15.9556 9.375 15.7479 9.375 15.5ZM0.625 15.5V12C0.625 11.7521 0.709 11.5441 0.877 11.3761C1.04442 11.2087 1.25208 11.125 1.5 11.125H6.75C6.99792 11.125 7.20588 11.2087 7.37388 11.3761C7.54129 11.5441 7.625 11.7521 7.625 12V15.5C7.625 15.7479 7.54129 15.9556 7.37388 16.123C7.20588 16.291 6.99792 16.375 6.75 16.375H1.5C1.25208 16.375 1.04442 16.291 0.877 16.123C0.709 15.9556 0.625 15.7479 0.625 15.5Z" />
</svg>
