<svg width="24" height="24" viewBox="0 0 24 24" fill="none" xmlns="http://www.w3.org/2000/svg">
<g clip-path="url(#clip0_4355_6481)">
<path d="M7.75764 11.1612H7.19522C6.42771 11.1335 5.66269 11.2638 4.94763 11.544C4.23257 11.8243 3.58273 12.2485 3.03845 12.7903L2.8833 12.9713V18.324H5.52088V15.2857L5.87643 14.8849L6.03805 14.6974C6.8797 13.8327 7.92752 13.1965 9.0829 12.8485C8.50444 12.4083 8.04822 11.8275 7.75764 11.1612Z" fill="#898585"/>
<path d="M20.2603 12.7709C19.716 12.2291 19.0662 11.8049 18.3511 11.5246C17.6361 11.2444 16.871 11.1141 16.1035 11.1418C15.8681 11.1425 15.6329 11.1555 15.3989 11.1806C15.1029 11.8057 14.6591 12.3493 14.106 12.7645C15.3394 13.1057 16.4567 13.7761 17.3383 14.7039L17.4999 14.8849L17.849 15.2857V18.3305H20.3961V12.9519L20.2603 12.7709Z" fill="#898585"/>
<path d="M7.17565 9.90062H7.37605C7.28294 9.1011 7.42322 8.29172 7.77998 7.57017C8.13674 6.84863 8.69471 6.24577 9.38656 5.83436C9.13577 5.45123 8.78978 5.1398 8.38247 4.93056C7.97516 4.72133 7.52049 4.62146 7.06299 4.64074C6.60549 4.66002 6.16083 4.79779 5.77257 5.04055C5.38431 5.28331 5.06575 5.62274 4.84809 6.02561C4.63042 6.42848 4.52112 6.88097 4.53087 7.33878C4.54063 7.79658 4.66912 8.24401 4.90375 8.63724C5.13838 9.03046 5.47111 9.35602 5.86936 9.58202C6.26762 9.80801 6.71774 9.92671 7.17565 9.92648V9.90062Z" fill="#898585"/>
<path d="M15.7932 9.41578C15.801 9.56436 15.801 9.71326 15.7932 9.86184C15.9172 9.88151 16.0425 9.89231 16.1681 9.89416H16.291C16.7468 9.86985 17.1887 9.72791 17.5734 9.48216C17.9582 9.2364 18.2728 8.89521 18.4865 8.4918C18.7003 8.08838 18.8059 7.6365 18.7932 7.18013C18.7804 6.72377 18.6498 6.27847 18.4139 5.8876C18.1779 5.49674 17.8448 5.17361 17.447 4.9497C17.0491 4.72578 16.6001 4.60869 16.1435 4.60984C15.687 4.61099 15.2385 4.73033 14.8418 4.95625C14.4451 5.18217 14.1136 5.50696 13.8796 5.89901C14.4647 6.28103 14.9459 6.80232 15.2798 7.41611C15.6138 8.02991 15.7902 8.71701 15.7932 9.41578Z" fill="#898585"/>
<path d="M11.5523 12.3119C13.1482 12.3119 14.442 11.0182 14.442 9.42223C14.442 7.82629 13.1482 6.53253 11.5523 6.53253C9.95636 6.53253 8.6626 7.82629 8.6626 9.42223C8.6626 11.0182 9.95636 12.3119 11.5523 12.3119Z" fill="#898585"/>
<path d="M11.7074 13.8505C10.8632 13.8164 10.0208 13.9535 9.23086 14.2535C8.44096 14.5534 7.7199 15.0101 7.11108 15.596L6.94946 15.777V19.8691C6.95199 20.0024 6.98074 20.1339 7.03409 20.2561C7.08744 20.3782 7.16434 20.4887 7.2604 20.5812C7.35645 20.6736 7.46977 20.7462 7.5939 20.7949C7.71802 20.8435 7.85052 20.8672 7.98381 20.8647H15.4117C15.545 20.8672 15.6775 20.8435 15.8016 20.7949C15.9257 20.7462 16.039 20.6736 16.1351 20.5812C16.2311 20.4887 16.308 20.3782 16.3614 20.2561C16.4147 20.1339 16.4435 20.0024 16.446 19.8691V15.7899L16.2909 15.596C15.686 15.0083 14.9675 14.5503 14.1793 14.2502C13.3912 13.9501 12.55 13.814 11.7074 13.8505Z" fill="#898585"/>
</g>
<defs>
<clipPath id="clip0_4355_6481">
<rect width="23.2727" height="23.2727" fill="white" transform="translate(0 0.727295)"/>
</clipPath>
</defs>
</svg>
