<svg width="22" height="22" viewBox="0 0 22 22" fill="none" xmlns="http://www.w3.org/2000/svg">
<path d="M2.52271 18.9067H19.4792V12.9034M3.40729 17.2736L10.2777 10.4041L12.6189 12.7453L19.4792 5.88498V10.9523M14.3729 5.88452H19.4792" stroke="#3F404A" stroke-linecap="round" stroke-linejoin="round"/>
<path d="M7.53904 5.68433H3.52038C2.9683 5.68433 2.52075 6.13187 2.52075 6.68395V9.89045C2.52075 10.4425 2.9683 10.8901 3.52038 10.8901H7.53904C8.09112 10.8901 8.53867 10.4425 8.53867 9.89045V6.68395C8.53867 6.13187 8.09112 5.68433 7.53904 5.68433Z" stroke="#3F404A" stroke-linecap="round" stroke-linejoin="round"/>
<path d="M3.92417 7.41943H8.53821M2.52075 9.15468H7.13479" stroke="#3F404A" stroke-linecap="round" stroke-linejoin="round"/>
<path d="M5.52571 4.77993C5.99147 4.77993 6.36904 4.40236 6.36904 3.93659C6.36904 3.47083 5.99147 3.09326 5.52571 3.09326C5.05995 3.09326 4.68237 3.47083 4.68237 3.93659C4.68237 4.40236 5.05995 4.77993 5.52571 4.77993Z" stroke="#3F404A" stroke-linecap="round" stroke-linejoin="round"/>
</svg>
