<svg width="25" height="25" viewBox="0 0 25 25" fill="none" xmlns="http://www.w3.org/2000/svg">
<circle opacity="0.7" cx="12.5" cy="12.5" r="12.5" fill="#FBAF9F"/>
<path d="M15.2534 6.92C15.1759 6.8424 15.084 6.78082 14.9827 6.73881C14.8815 6.6968 14.773 6.67518 14.6634 6.67518C14.5537 6.67518 14.4452 6.6968 14.344 6.73881C14.2427 6.78082 14.1508 6.8424 14.0734 6.92L8.46669 12.5267C8.40489 12.5883 8.35586 12.6616 8.3224 12.7423C8.28895 12.8229 8.27173 12.9094 8.27173 12.9967C8.27173 13.084 8.28895 13.1704 8.3224 13.2511C8.35586 13.3317 8.40489 13.405 8.46669 13.4667L14.0734 19.0733C14.4 19.4 14.9267 19.4 15.2534 19.0733C15.58 18.7467 15.58 18.22 15.2534 17.8933L10.36 13L15.26 8.1C15.58 7.77333 15.58 7.24667 15.2534 6.92Z" fill="#FF481D"/>
</svg>