<svg width="23" height="23" viewBox="0 0 23 23" fill="none" xmlns="http://www.w3.org/2000/svg">
<path d="M1.97041 18.7018L7.80475 12.808L10.9577 15.8268L14.8111 12.4583L16.9578 14.5513M21.0834 5.27075C21.0834 4.8895 20.932 4.52387 20.6624 4.25429C20.3928 3.9847 20.0272 3.83325 19.6459 3.83325H3.35425C2.973 3.83325 2.60737 3.9847 2.33778 4.25429C2.0682 4.52387 1.91675 4.8895 1.91675 5.27075V9.58325H21.0834V5.27075Z" stroke="#3F404A" stroke-linecap="round" stroke-linejoin="round"/>
<path d="M21.0834 8.62492V17.7291C21.0834 18.1103 20.932 18.476 20.6624 18.7456C20.3928 19.0151 20.0272 19.1666 19.6459 19.1666H5.75008M9.15791 6.70825H17.7829M5.32362 6.70825H6.28196M1.91675 8.62492V12.9374" stroke="#3F404A" stroke-linecap="round" stroke-linejoin="round"/>
</svg>
