<svg width="23" height="23" viewBox="0 0 23 23" fill="none" xmlns="http://www.w3.org/2000/svg">
<path d="M2.13379 4.67188H19.4062V2.31438C19.4063 2.20803 19.3827 2.103 19.3372 2.00687C19.2917 1.91074 19.2254 1.8259 19.1432 1.75848C19.0609 1.69105 18.9647 1.64272 18.8615 1.61697C18.7583 1.59122 18.6507 1.58869 18.5464 1.60956L2.0152 4.32643C1.8921 4.35094 1.77756 4.40725 1.68299 4.48977C1.58842 4.57228 1.5171 4.67813 1.47613 4.79677C1.6855 4.71399 1.90865 4.67161 2.13379 4.67188ZM20.8213 5.75001H2.13379C1.94316 5.75001 1.76035 5.82573 1.62556 5.96052C1.49076 6.09532 1.41504 6.27813 1.41504 6.46876V19.4063C1.41504 19.5969 1.49076 19.7797 1.62556 19.9145C1.76035 20.0493 1.94316 20.125 2.13379 20.125H20.8213C21.0119 20.125 21.1947 20.0493 21.3295 19.9145C21.4643 19.7797 21.54 19.5969 21.54 19.4063V6.46876C21.54 6.27813 21.4643 6.09532 21.3295 5.96052C21.1947 5.82573 21.0119 5.75001 20.8213 5.75001ZM16.5312 14.375C16.2469 14.375 15.969 14.2907 15.7326 14.1327C15.4962 13.9748 15.312 13.7503 15.2032 13.4876C15.0944 13.2249 15.0659 12.9359 15.1214 12.6571C15.1768 12.3782 15.3137 12.1221 15.5148 11.921C15.7158 11.72 15.972 11.5831 16.2508 11.5276C16.5297 11.4722 16.8187 11.5006 17.0814 11.6094C17.344 11.7182 17.5685 11.9025 17.7265 12.1389C17.8844 12.3753 17.9688 12.6532 17.9688 12.9375C17.9688 13.3188 17.8173 13.6844 17.5477 13.954C17.2781 14.2236 16.9125 14.375 16.5312 14.375Z" fill="#909090"/>
<path d="M1.40723 11.6572V5.21094C1.40723 4.65705 1.66418 4.38078 2.09992 4.3125C3.68117 4.06408 6.97754 3.93066 6.97754 3.93066C6.97754 3.93066 6.60334 4.64941 5.74982 4.64941V5.75C6.58088 5.75 7.15723 6.80566 7.15723 6.80566L3.81055 10.6016L1.40723 11.6572Z" fill="#909090"/>
</svg>
