<svg width="19" height="9" viewBox="0 0 19 9" fill="none" xmlns="http://www.w3.org/2000/svg">
<path d="M18.5 1L13.388 1.93128L16.7505 5.89278L18.5 1ZM6 1.5L6.35019 1.21739L6.07506 0.876474L5.72689 1.14236L6 1.5ZM10.8421 7.50002L10.4919 7.78263L10.7816 8.14161L11.1333 7.8431L10.8421 7.50002ZM1.27311 5.67585L6.27311 1.85764L5.72689 1.14236L0.726888 4.96056L1.27311 5.67585ZM5.64981 1.78261L10.4919 7.78263L11.1923 7.21741L6.35019 1.21739L5.64981 1.78261ZM11.1333 7.8431L15.7035 3.9639L15.1211 3.27775L10.5509 7.15695L11.1333 7.8431Z" fill="#00832D"/>
</svg>
