<svg width="25" height="25" viewBox="0 0 25 25" fill="none" xmlns="http://www.w3.org/2000/svg">
<circle opacity="0.7" r="12.5" transform="matrix(-1 0 0 1 12.5 12.5)" fill="#FBAF9F"/>
<path d="M9.74664 6.92C9.82405 6.8424 9.91601 6.78082 10.0173 6.73881C10.1185 6.6968 10.227 6.67518 10.3366 6.67518C10.4463 6.67518 10.5548 6.6968 10.656 6.73881C10.7573 6.78082 10.8492 6.8424 10.9266 6.92L16.5333 12.5267C16.5951 12.5883 16.6441 12.6616 16.6776 12.7423C16.7111 12.8229 16.7283 12.9094 16.7283 12.9967C16.7283 13.084 16.7111 13.1704 16.6776 13.2511C16.6441 13.3317 16.5951 13.405 16.5333 13.4667L10.9266 19.0733C10.6 19.4 10.0733 19.4 9.74664 19.0733C9.41998 18.7467 9.41998 18.22 9.74664 17.8933L14.64 13L9.73998 8.1C9.41998 7.77333 9.41998 7.24667 9.74664 6.92V6.92Z" fill="#FF481D"/>
</svg>
