<svg width="23" height="23" viewBox="0 0 23 23" fill="none" xmlns="http://www.w3.org/2000/svg">
<path fill-rule="evenodd" clip-rule="evenodd" d="M11.5001 20.1251C16.2635 20.1251 20.1251 16.2635 20.1251 11.5001C20.1251 6.73669 16.2635 2.87508 11.5001 2.87508C6.73669 2.87508 2.87508 6.73669 2.87508 11.5001C2.87508 16.2635 6.73669 20.1251 11.5001 20.1251ZM11.5001 21.0834C16.793 21.0834 21.0834 16.793 21.0834 11.5001C21.0834 6.20721 16.793 1.91675 11.5001 1.91675C6.20721 1.91675 1.91675 6.20721 1.91675 11.5001C1.91675 16.793 6.20721 21.0834 11.5001 21.0834Z" fill="#444444"/>
<path d="M5.75 17.0728C5.75 16.5779 6.11992 16.1596 6.6125 16.1049C10.3093 15.6957 12.7075 15.7326 16.3961 16.114C16.5803 16.1334 16.7549 16.2059 16.8985 16.3229C17.0422 16.4398 17.1486 16.596 17.2049 16.7725C17.2613 16.9489 17.265 17.1379 17.2156 17.3164C17.1663 17.495 17.066 17.6552 16.927 17.7777C12.5738 21.5722 10.086 21.52 6.05667 17.7815C5.86021 17.5994 5.75 17.3407 5.75 17.0733V17.0728Z" fill="#444444"/>
<path fill-rule="evenodd" clip-rule="evenodd" d="M16.3469 16.5902C12.6875 16.2117 10.3238 16.1762 6.66489 16.5811C6.54445 16.5952 6.43342 16.6531 6.35305 16.7439C6.27269 16.8347 6.22864 16.952 6.22933 17.0732C6.22933 17.2103 6.28635 17.3401 6.38267 17.4302C8.37983 19.2827 9.89304 20.1198 11.3722 20.125C12.8567 20.1303 14.4514 19.2999 16.6124 17.4168C16.681 17.3557 16.7305 17.276 16.7547 17.1873C16.7788 17.0986 16.7768 17.0048 16.7486 16.9173C16.7205 16.8298 16.6676 16.7524 16.5963 16.6944C16.525 16.6364 16.4383 16.6004 16.3469 16.5907V16.5902ZM6.55996 15.6285C10.2955 15.215 12.7287 15.2524 16.4461 15.6372C16.7232 15.6661 16.9859 15.7752 17.2019 15.9511C17.418 16.127 17.5781 16.3621 17.6626 16.6276C17.7471 16.893 17.7524 17.1774 17.6778 17.4458C17.6031 17.7143 17.4519 17.9551 17.2425 18.1389C15.0503 20.0498 13.2247 21.0906 11.3694 21.0834C9.50875 21.0767 7.76362 20.0182 5.73148 18.1327C5.58598 17.9971 5.46999 17.8331 5.39076 17.6507C5.31153 17.4683 5.27076 17.2716 5.271 17.0728C5.2703 16.7155 5.40143 16.3706 5.63927 16.104C5.87711 15.8374 6.20494 15.6679 6.55996 15.6281V15.6285Z" fill="#444444"/>
<path d="M15.3334 9.58333C15.3334 10.6 14.9295 11.575 14.2107 12.2939C13.4918 13.0128 12.5167 13.4167 11.5001 13.4167C10.4834 13.4167 9.50839 13.0128 8.78951 12.2939C8.07062 11.575 7.66675 10.6 7.66675 9.58333C7.66675 8.56667 8.07062 7.59165 8.78951 6.87276C9.50839 6.15387 10.4834 5.75 11.5001 5.75C12.5167 5.75 13.4918 6.15387 14.2107 6.87276C14.9295 7.59165 15.3334 8.56667 15.3334 9.58333Z" fill="#444444"/>
<path fill-rule="evenodd" clip-rule="evenodd" d="M11.5001 12.4583C12.2626 12.4583 12.9938 12.1554 13.533 11.6163C14.0722 11.0771 14.3751 10.3458 14.3751 9.58333C14.3751 8.82084 14.0722 8.08957 13.533 7.5504C12.9938 7.01123 12.2626 6.70833 11.5001 6.70833C10.7376 6.70833 10.0063 7.01123 9.46715 7.5504C8.92798 8.08957 8.62508 8.82084 8.62508 9.58333C8.62508 10.3458 8.92798 11.0771 9.46715 11.6163C10.0063 12.1554 10.7376 12.4583 11.5001 12.4583ZM11.5001 13.4167C12.5167 13.4167 13.4918 13.0128 14.2107 12.2939C14.9295 11.575 15.3334 10.6 15.3334 9.58333C15.3334 8.56667 14.9295 7.59165 14.2107 6.87276C13.4918 6.15387 12.5167 5.75 11.5001 5.75C10.4834 5.75 9.50839 6.15387 8.78951 6.87276C8.07062 7.59165 7.66675 8.56667 7.66675 9.58333C7.66675 10.6 8.07062 11.575 8.78951 12.2939C9.50839 13.0128 10.4834 13.4167 11.5001 13.4167Z" fill="#444444"/>
</svg>
